<svg xmlns="http://www.w3.org/2000/svg" version="1.1" xmlns:xlink="http://www.w3.org/1999/xlink" xmlns:svgjs="http://svgjs.dev/svgjs" width="1500" height="1500" viewBox="0 0 1500 1500"><rect width="1500" height="1500" fill="#dfdad6"></rect><g transform="matrix(0.6666666666666666,0,0,0.6666666666666666,249.90521189908986,266.3926265295403)"><svg viewBox="0 0 255 247" data-background-color="#dfdad6" preserveAspectRatio="xMidYMid meet" height="1452" width="1500" xmlns="http://www.w3.org/2000/svg" xmlns:xlink="http://www.w3.org/1999/xlink"><g id="tight-bounds" transform="matrix(1,0,0,1,0.02417096573208255,-0.09997365579206985)"><svg viewBox="0 0 254.95165806853586 247.2" height="247.2" width="254.95165806853586"><g><svg viewBox="0 0 254.95165806853586 247.2" height="247.2" width="254.95165806853586"><g><svg viewBox="0 0 254.95165806853586 247.2" height="247.2" width="254.95165806853586"><g id="textblocktransform"><svg viewBox="0 0 254.95165806853586 247.2" height="247.2" width="254.95165806853586" id="textblock"><g><svg viewBox="0 0 254.95165806853586 247.2" height="247.2" width="254.95165806853586"><path d="M254.355 53.02C253.156 27.36 249.74 20.227 249.74 20.227 239.253-6.202 226.164-0.506 214.406 3.292 193.647 3.446 172.971 9.091 152.26 12.119 108.787 12.581 64.943 4.986 21.686 23.717 17.623 29.464-4.215 24.846 0.723 56.304 2.017 69.39 6.74 83.913 6.596 95.922 7.243 98.026 8.142 93.202 8.526 96.23 9.868 104.39 12.061 100.541 13.859 105.365 11.354 118.246 13.152 128.971 14.866 140.21 11.846 143.135 7.974 141.749 6.236 151.449 6.056 158.479 5.086 157.145 4.019 156.837 3.24 156.632 1.67 157.402 1.933 159.608 2.832 167.152-1.027 171.514 1.394 178.904-0.272 186.91 2.545 193.838 2.161 202.511 2.113 204.255 2.377 205.744 2.796 206.154 4.654 208.361 1.945 212.672 2.233 217.342 21.29 249.262 41.966 227.195 61.491 241.872 66.561 231.608 62.749 245.516 64.775 243.36 66.357 240.846 67.508 251.263 69.294 245.362 69.569 243.668 69.15 239.665 70.133 240.435 70.648 240.846 71.103 240.743 71.175 238.382 71.283 234.841 70.336 237.048 70.085 235.201 72.805 225.861 72.134 248.081 74.687 247.158 74.567 244.438 73.824 240.538 75.346 241.051 76.857 237.151 76.905 233.918 78.247 242.693 78.295 244.592 78.535 245.926 78.918 246.85 83.113 237.305 87.284 250.237 91.683 245.926 94.38 241.205 96.969 248.492 99.702 246.696 100.661 245.259 101.631 242.693 102.554 247.004 113.857 247.928 125.903 244.079 136.618 247.158 165.252 241.41 195.852 249.518 226.044 241.923 233.164 238.998 240.559 234.841 247.499 231.506 247.499 231.506 253.12 222.371 253.12 181.316S254.319 145.393 254.499 112.703C254.678 80.013 255.517 78.679 254.319 53.02Z" opacity="1" fill="#e33e33" data-fill-palette-color="tertiary"></path><g transform="matrix(1,0,0,1,55.76832,26.230666666666668)"><svg width="143.41501806853586" viewBox="1.9 -26.1 19.700000000000003 26.75" height="194.73866666666666" data-palette-color="#dfdad6"><path d="M11.2 0.65L11.2 0.65Q7.95 0.65 5.88-0.18 3.8-1 2.85-2.38 1.9-3.75 1.9-5.4L1.9-5.4Q1.9-6.25 2.2-6.95 2.5-7.65 3.23-8.03 3.95-8.4 5.2-8.15L5.2-8.15Q5.05-7.65 5.03-7.18 5-6.7 5.1-6.05L5.1-6.05Q5.2-3.85 6.9-2.55 8.6-1.25 11.55-1.25L11.55-1.25Q14.3-1.25 16.05-2.25 17.8-3.25 17.8-5.2L17.8-5.2Q17.8-6.8 16.78-7.78 15.75-8.75 14.15-9.5 12.55-10.25 10.8-11.1L10.8-11.1Q8.85-12 7.05-13.03 5.25-14.05 4.08-15.6 2.9-17.15 2.9-19.65L2.9-19.65Q2.9-21.95 4.15-23.38 5.4-24.8 7.45-25.45 9.5-26.1 11.9-26.1L11.9-26.1Q16-26.1 18.3-24.78 20.6-23.45 20.6-21.1L20.6-21.1Q20.6-20.25 20.2-19.6 19.8-18.95 18.75-18.8L18.75-18.8Q18.4-18.7 18.05-18.73 17.7-18.75 17.3-18.8L17.3-18.8Q17.4-19.3 17.4-19.88 17.4-20.45 17.25-20.9L17.25-20.9Q17.05-22.55 15.6-23.4 14.15-24.25 11.75-24.25L11.75-24.25Q10.4-24.25 9.22-23.93 8.05-23.6 7.33-22.83 6.6-22.05 6.6-20.8L6.6-20.8Q6.6-19.15 7.5-18.07 8.4-17 9.9-16.23 11.4-15.45 13.05-14.65L13.05-14.65Q14.55-13.95 16.05-13.23 17.55-12.5 18.82-11.58 20.1-10.65 20.85-9.45 21.6-8.25 21.6-6.5L21.6-6.5Q21.6-4.85 20.68-3.2 19.75-1.55 17.48-0.45 15.2 0.65 11.2 0.65Z" opacity="1" transform="matrix(1,0,0,1,0,0)" fill="#dfdad6" class="wordmark-text-0" data-fill-palette-color="quaternary" id="text-0"></path></svg></g></svg></g></svg></g></svg></g><g></g></svg></g><defs></defs></svg><rect width="254.95165806853586" height="247.2" fill="none" stroke="none" visibility="hidden"></rect></g></svg></g></svg>